<?xml version="1.0" encoding="UTF-8"?>
<svg fill="none" viewBox="0 0 80 96" xmlns="http://www.w3.org/2000/svg">
<path d="m40 95.948c22.091 0 40-17.909 40-40s-17.909-40-40-40-40 17.909-40 40 17.909 40 40 40z" fill="#4382FF"/>
<path d="m40 95.948c22.091 0 40-17.909 40-40s-17.909-40-40-40-40 17.909-40 40 17.909 40 40 40z" fill="#fff" opacity=".8"/>
<path d="m50.653 0.7385-31.505 4.1029c-1.7457 0.22735-2.9765 1.8268-2.7492 3.5724l8.4814 65.125c0.2273 1.7457 1.8268 2.9765 3.5724 2.7492l31.505-4.1029c1.7457-0.2274 2.9765-1.8268 2.7492-3.5725l-8.4814-65.125c-0.2273-1.7457-1.8268-2.9765-3.5724-2.7492z" fill="#4382FF"/>
<path d="m61.631 60.339-6.3303-48.579-14.645 1.9065c2.6103 7.8568 3.819 16.111 3.571 24.386-0.2628 8.7108-2.1785 17.292-5.6451 25.288l23.05-3.0013z" fill="url(#a)" style="mix-blend-mode:soft-light"/>
<path d="m43.463 71.596c1.6987 0 3.0758-1.377 3.0758-3.0757 0-1.6988-1.3771-3.0758-3.0758-3.0758s-3.0758 1.377-3.0758 3.0758c0 1.6987 1.3771 3.0757 3.0758 3.0757z" fill="#fff"/>
<g style="mix-blend-mode:soft-light">
<path d="m39.672 7.4138-8.1922 1.065c-0.0494 0.00593-0.0991-8e-3 -0.1382-0.03873s-0.0644-0.07573-0.0703-0.12511 8e-3 -0.09909 0.0387-0.1382c0.0308-0.0391 0.0758-0.0644 0.1251-0.07033l8.1922-1.0687c0.0494-0.00642 0.0993 0.00704 0.1387 0.03742 0.0395 0.03038 0.0653 0.07518 0.0717 0.12456s-0.0071 0.09929-0.0374 0.13874c-0.0304 0.03946-0.0752 0.06523-0.1246 0.07165l-0.0037 0.00372z" fill="#000"/>
</g>
<defs>
<linearGradient id="a" x1="46.297" x2="52.666" y1="7.8907" y2="56.39" gradientUnits="userSpaceOnUse">
<stop stop-color="#fff" stop-opacity="0" offset="0"/>
<stop stop-opacity=".8" offset="1"/>
</linearGradient>
</defs>
</svg>
