<?xml version="1.0" encoding="UTF-8"?>
<svg fill="none" viewBox="0 0 80 81" xmlns="http://www.w3.org/2000/svg">
<path d="m40 80.474c22.091 0 40-17.909 40-40s-17.909-40-40-40-40 17.909-40 40 17.909 40 40 40z" fill="#4382FF"/>
<path d="m40 80.474c22.091 0 40-17.909 40-40s-17.909-40-40-40-40 17.909-40 40 17.909 40 40 40z" fill="#fff" opacity=".8"/>
<path d="m52 5.0001c7.7778 0 14.389 2.4306 19.833 7.2917 5.4445 4.8611 8.1667 10.743 8.1667 17.646 0 4.2778-1.5312 7.9236-4.5938 10.938-3.0624 3.0139-6.7326 4.5209-11.01 4.5209h-5.3958c-1.3611 0-2.4792 0.4618-3.3542 1.3854s-1.3125 2.0173-1.3125 3.2812c0 1.1667 0.3889 2.1875 1.1667 3.0625 0.7778 0.9722 1.1667 2.0417 1.1667 3.2084 0 1.2638-0.4618 2.3576-1.3855 3.2812-0.9236 0.9236-2.0173 1.3854-3.2812 1.3854-7.7778 0-14.389-2.7222-19.833-8.1666-5.4445-5.4445-8.1667-12.056-8.1667-19.833s2.7222-14.389 8.1667-19.833c5.4444-5.4445 12.056-8.1667 19.833-8.1667zm-17.135 28c1.3125 0 2.4305-0.4618 3.3541-1.3854 0.9237-0.9236 1.3855-2.0174 1.3855-3.2812 0-1.2639-0.4618-2.3577-1.3855-3.2813-0.9236-0.9236-2.0416-1.3854-3.3541-1.3854s-2.4063 0.4618-3.2813 1.3854-1.3125 2.0174-1.3125 3.2813c0 1.2638 0.4375 2.3576 1.3125 3.2812s1.9688 1.3854 3.2813 1.3854zm9.3333-12.396c1.3125 0 2.4306-0.4618 3.3542-1.3854s1.3854-2.0417 1.3854-3.3542-0.4618-2.4062-1.3854-3.2812-2.0417-1.3125-3.3542-1.3125-2.4062 0.4375-3.2812 1.3125-1.3125 1.9687-1.3125 3.2812 0.4375 2.4306 1.3125 3.3542 1.9687 1.3854 3.2812 1.3854zm15.604 0c1.3125 0 2.4062-0.4618 3.2812-1.3854s1.3125-2.0417 1.3125-3.3542-0.4375-2.4062-1.3125-3.2812-1.9687-1.3125-3.2812-1.3125-2.4306 0.4375-3.3542 1.3125-1.3854 1.9687-1.3854 3.2812 0.4618 2.4306 1.3854 3.3542 2.0417 1.3854 3.3542 1.3854zm9.3333 12.396c1.3125 0 2.4063-0.4618 3.2813-1.3854s1.3125-2.0174 1.3125-3.2812c0-1.2639-0.4375-2.3577-1.3125-3.2813s-1.9688-1.3854-3.2813-1.3854-2.4305 0.4618-3.3542 1.3854c-0.9236 0.9236-1.3854 2.0174-1.3854 3.2813 0 1.2638 0.4618 2.3576 1.3854 3.2812 0.9237 0.9236 2.0417 1.3854 3.3542 1.3854z" fill="#4382FF"/>
<path d="m52 5c7.7778 0 14.389 2.4306 19.833 7.2917 5.4445 4.8611 8.1667 10.743 8.1667 17.646 0 4.2778-1.5313 7.9236-4.5938 10.938s-6.7326 4.5208-11.01 4.5208h-5.3958c-1.3611 0-2.4792 0.4618-3.3542 1.3854 0 0 2.3542-5.7812-1.4698-16.844-3.8239-11.062-2.176-24.938-2.176-24.938zm11.083 14.219c-0.875 0.9237-1.9687 1.3855-3.2812 1.3855s-2.4306-0.4618-3.3542-1.3855c-0.9236-0.9236-1.3854-2.0416-1.3854-3.3541s0.4618-2.4063 1.3854-3.2813 2.0417-1.3125 3.3542-1.3125 2.4062 0.4375 3.2812 1.3125 1.3125 1.9688 1.3125 3.2813-0.4375 2.4305-1.3125 3.3541zm9.3334 12.396c-0.875 0.9236-1.9688 1.3854-3.2813 1.3854s-2.4305-0.4618-3.3542-1.3854c-0.9236-0.9236-1.3854-2.0174-1.3854-3.2813s0.4618-2.3576 1.3854-3.2812c0.9237-0.9236 2.0417-1.3854 3.3542-1.3854s2.4063 0.4618 3.2813 1.3854 1.3125 2.0173 1.3125 3.2812-0.4375 2.3577-1.3125 3.2813z" clip-rule="evenodd" fill="url(#a)" fill-rule="evenodd" style="mix-blend-mode:soft-light"/>
<defs>
<linearGradient id="a" x1="61.971" x2="66.109" y1="45.273" y2="6.395" gradientUnits="userSpaceOnUse">
<stop stop-opacity=".8" offset="0"/>
<stop stop-color="#fff" stop-opacity="0" offset="1"/>
</linearGradient>
</defs>
</svg>
