<?xml version="1.0" encoding="UTF-8"?>
<svg fill="none" viewBox="0 0 91 85" xmlns="http://www.w3.org/2000/svg">
<path d="m40 84.801c22.091 0 40-17.909 40-40s-17.909-40-40-40-40 17.909-40 40 17.909 40 40 40z" fill="#4382FF"/>
<path d="m40 84.801c22.091 0 40-17.909 40-40s-17.909-40-40-40-40 17.909-40 40 17.909 40 40 40z" fill="#fff" opacity=".8"/>
<path d="m64.214 7.5071-54.757 17.253c-0.5055 0.1582-0.97294 0.4089-1.3756 0.7376-0.40261 0.3288-0.7325 0.7291-0.9708 1.1781-0.23829 0.4491-0.3803 0.938-0.4179 1.4389-0.03761 0.5008 0.02993 1.0037 0.19874 1.4799l14.478 40.872c0.3411 0.9616 1.0732 1.7564 2.0356 2.2095 0.9623 0.4532 2.0761 0.5277 3.0967 0.2073l54.758-17.253c0.5052-0.1587 0.9723-0.4098 1.3745-0.7389 0.4023-0.329 0.7317-0.7296 0.9695-1.1788 0.2379-0.4492 0.3794-0.9382 0.4165-1.439 0.0372-0.5008-0.0308-1.0035-0.2-1.4796l-14.493-40.893c-0.3444-0.95442-1.0752-1.7418-2.033-2.1903-0.9578-0.44854-2.0649-0.52189-3.0799-0.20407zm-11.143 5.346c0.6288-0.1969 1.3055-0.2137 1.9444-0.0483 0.6389 0.1655 1.2115 0.5057 1.6453 0.9778 0.4339 0.4721 0.7095 1.0549 0.7921 1.6746s-0.0315 1.2486-0.328 1.8072c-0.2964 0.5585-0.7619 1.0218-1.3376 1.3311-0.5756 0.3093-1.2356 0.4508-1.8966 0.4066-0.6609-0.0442-1.2931-0.272-1.8167-0.6548-0.5237-0.3828-0.9151-0.9032-1.125-1.4957-0.1396-0.3938-0.1954-0.8098-0.1642-1.224 0.0311-0.4142 0.1486-0.8186 0.3457-1.19s0.47-0.7025 0.803-0.9744 0.7195-0.4792 1.1376-0.6101zm-31.314 9.8598c0.6288-0.1969 1.3054-0.2137 1.9443-0.0482 0.639 0.1654 1.2116 0.5057 1.6454 0.9778s0.7095 1.0548 0.7921 1.6745-0.0316 1.2486-0.328 1.8072c-0.2965 0.5586-0.7619 1.0218-1.3376 1.3311s-1.2357 0.4508-1.8966 0.4066c-0.661-0.0441-1.2932-0.272-1.8168-0.6548-0.5236-0.3827-0.9151-0.9032-1.125-1.4956-0.1395-0.3939-0.1953-0.8098-0.1642-1.2241 0.0312-0.4142 0.1487-0.8186 0.3458-1.1899 0.1971-0.3714 0.4699-0.7025 0.8029-0.9744s0.7196-0.4792 1.1377-0.6102z" fill="#4382FF"/>
<path d="m64.214 7.5071-54.757 17.253c-0.50551 0.1582-0.97294 0.4089-1.3756 0.7376-0.40261 0.3288-0.7325 0.7291-0.97079 1.1782-0.23829 0.449-0.38031 0.9379-0.41791 1.4388-0.03761 0.5008 0.02993 1.0037 0.19875 1.4799l2.0034 5.6743 62.457-19.675-2.005-5.6775c-0.1689-0.47604-0.4357-0.91603-0.7851-1.2948s-0.7746-0.6889-1.2513-0.91263c-0.4767-0.22374-0.9955-0.35669-1.5268-0.39127-0.5312-0.03458-1.0645 0.0299-1.5693 0.18975z" fill="#4382FF"/>
<path d="m64.214 7.5071-28.128 8.8569c4.2966 4.534 8.0228 9.521 11.104 14.862 5.6763 9.8879 9.0706 20.795 9.96 32.007l24.106-7.5893c0.5053-0.1587 0.9724-0.4098 1.3746-0.7388 0.4023-0.3291 0.7317-0.7296 0.9695-1.1788s0.3794-0.9382 0.4165-1.439c0.0372-0.5008-0.0308-1.0036-0.2-1.4796l-14.493-40.893c-0.3417-0.95628-1.071-1.7462-2.0287-2.1972-0.9576-0.45098-2.0657-0.52637-3.0821-0.2097z" fill="url(#a)" style="mix-blend-mode:soft-light"/>
<g opacity=".4" style="mix-blend-mode:soft-light">
<path d="m6.5241 29.016 14.604 42.16c0.1339 0.3892 0.3527 0.747 0.6437 1.0528s0.6486 0.5536 1.0524 0.7293c0.4037 0.1757 0.8457 0.2758 1.3005 0.2946 0.4549 0.0188 0.9137-0.044 1.3503-0.185l5.2018-1.6734-16.654-48.088-5.2047 1.6747c-0.43641 0.141-0.84199 0.3573-1.1935 0.6365-0.35153 0.2792-0.64212 0.6158-0.85514 0.9906-0.21303 0.3748-0.34431 0.7804-0.38635 1.1936-0.04203 0.4132 6e-3 0.8259 0.14136 1.2146z" fill="#000"/>
</g>
<path d="m40.016 55.804c2.1321-0.3571 3.5189-2.5461 3.0819-4.8646-0.1986-1.0538-0.7849-2.0427-1.4855-2.5776l0.8625-6.1212 0.9722-0.0565c0.9691-0.1623 2.0655-1.5704 2.5278-2.3l5.6224 2.3v0.8093c0.437 2.3184 2.539 3.9231 4.6711 3.5661 2.132-0.3571 3.5189-2.5462 3.0819-4.8646-0.1986-1.0538-1.135-2.3312-1.8754-3.0769l1-5.8036 1.2245 0.1252c2.1321-0.3571 3.519-2.5461 3.082-4.8646-0.4371-2.3184-2.539-3.9232-4.6711-3.5661s-3.5189 2.5461-3.0819 4.8646c0.1986 1.0538 1.0523 2.3302 1.7529 2.8651l-1.3064 5.8902h-0.7956c-0.9692 0.1623-2.2421 1.0256-2.7044 1.7553l-5.5-1.8853 0.0541-0.6792c-0.437-2.3185-2.539-3.9232-4.6711-3.5661-2.132 0.357-3.5189 2.5461-3.0819 4.8645 0.1987 1.0539 1.3793 2.2707 2.08 2.8056l-1.0479 5.9846-1.3812-0.0349c-2.1321 0.3571-3.5189 2.5462-3.0819 4.8646 0.437 2.3185 2.5389 3.9232 4.671 3.5661z" fill="#F7FAFC"/>
<defs>
<linearGradient id="a" x1="69.123" x2="53.798" y1="59.463" y2="10.785" gradientUnits="userSpaceOnUse">
<stop stop-opacity=".8" offset="0"/>
<stop stop-color="#fff" stop-opacity="0" offset="1"/>
</linearGradient>
</defs>
</svg>
