<?xml version="1.0" encoding="UTF-8"?>
<svg fill="none" viewBox="0 0 80 85" xmlns="http://www.w3.org/2000/svg">
<path d="m40.882 84.229c19.304 0 34.953-15.649 34.953-34.953s-15.649-34.953-34.953-34.953c-19.304 0-34.953 15.649-34.953 34.953s15.649 34.953 34.953 34.953z" fill="#4382FF"/>
<path d="m40.882 84.229c19.304 0 34.953-15.649 34.953-34.953s-15.649-34.953-34.953-34.953c-19.304 0-34.953 15.649-34.953 34.953s15.649 34.953 34.953 34.953z" fill="#fff" opacity=".8"/>
<path d="m54.328 4.9868 3.1849 20.31c0.0968 0.6201 0.0705 1.2532-0.0774 1.8631-0.1479 0.61-0.4145 1.1848-0.7845 1.6918-0.3701 0.5069-0.8364 0.9359-1.3723 1.2626s-1.1308 0.5446-1.751 0.6414l-35.844 5.6216-6.2235 6.9846-0.5465-5.9241-2.2089 0.3448c-1.2504 0.1938-2.5266-0.1163-3.5487-0.8621-1.0221-0.7459-1.7067-1.8667-1.9037-3.1165l-3.1947-20.31c-0.19559-1.2523 0.11393-2.531 0.86057-3.5551 0.74663-1.0242 1.8693-1.7101 3.1214-1.907l44.836-7.027c1.2509-0.19366 2.5275 0.11684 3.5497 0.86337 1.0222 0.74652 1.7065 1.8681 1.9027 3.1186z" fill="#4382FF"/>
<path d="m47.359 12.183-38.456 6.0282c-0.24251 0.0247-0.48526-0.0445-0.67833-0.1933-0.19306-0.1488-0.32179-0.3659-0.3597-0.6067s0.01787-0.487 0.15588-0.6879 0.34775-0.3414 0.5861-0.3924l38.46-6.0282c0.1235-0.0193 0.2495-0.014 0.371 0.0155 0.1214 0.0295 0.2358 0.0826 0.3367 0.1563s0.1863 0.1666 0.2513 0.2733 0.1084 0.2252 0.1276 0.3487c0.0192 0.1234 0.0139 0.2495-0.0156 0.3709-0.0294 0.1214-0.0826 0.2358-0.1563 0.3367s-0.1665 0.1863-0.2732 0.2513c-0.1068 0.065-0.2252 0.1084-0.3487 0.1276z" fill="#fff"/>
<path d="m48.166 17.32-38.46 6.0283c-0.12346 0.0192-0.24951 0.0139-0.37093-0.0156-0.12143-0.0295-0.23586-0.0826-0.33675-0.1563-0.1009-0.0737-0.18629-0.1666-0.2513-0.2733s-0.10837-0.2252-0.12759-0.3486c-0.01923-0.1235-0.01395-0.2495 0.01554-0.371 0.02949-0.1214 0.0826-0.2358 0.15631-0.3367s0.16657-0.1863 0.27329-0.2513c0.10671-0.065 0.22518-0.1084 0.34864-0.1276l38.456-6.025c0.1233-0.0194 0.2492-0.0144 0.3705 0.0148s0.2356 0.0821 0.3365 0.1555 0.1864 0.1659 0.2515 0.2724c0.0651 0.1064 0.1087 0.2246 0.1281 0.3479 0.0194 0.1232 0.0144 0.2491-0.0148 0.3704s-0.082 0.2357-0.1554 0.3366-0.166 0.1863-0.2724 0.2515c-0.1065 0.0651-0.2247 0.1086-0.3479 0.128z" fill="#fff"/>
<path d="m40.892 23.719-30.379 4.766c-0.2489 0.0393-0.5032-0.022-0.70699-0.1702-0.20378-0.1483-0.34031-0.3714-0.37957-0.6203-0.03925-0.2489 0.02198-0.5033 0.17023-0.707 0.14826-0.2038 0.37139-0.3403 0.62033-0.3796l30.378-4.7627c0.2362-0.0137 0.469 0.0609 0.6532 0.2093 0.1842 0.1483 0.3066 0.3599 0.3435 0.5935 0.037 0.2337-0.0143 0.4727-0.1438 0.6706s-0.328 0.3407-0.5568 0.4004z" fill="#fff"/>
<path d="m54.327 4.9868 3.1816 20.31c0.0973 0.6199 0.0714 1.2529-0.0761 1.8629-0.1475 0.6099-0.4138 1.1848-0.7836 1.6918-0.3698 0.5069-0.8358 0.936-1.3716 1.2628-0.5357 0.3267-1.1306 0.5447-1.7506 0.6414l-18.683 2.9279c0.343-5.2896-0.1946-10.6-1.5909-15.713-1.3178-4.8102-3.3745-9.3867-6.0965-13.566l21.715-3.3996c1.2513-0.19372 2.5283 0.11669 3.551 0.86315s1.7077 1.868 1.9047 3.1188z" fill="url(#b)" style="mix-blend-mode:soft-light"/>
<path d="m37.437 29.438-4.5805 20.04c-0.2826 1.2337-0.0646 2.529 0.6062 3.6023 0.6707 1.0732 1.7396 1.8368 2.9723 2.1234l24.256 5.55 5.7224 7.4011 0.9597-5.8721 2.1797 0.4977c1.2338 0.2844 2.53 0.0672 3.6037-0.6039 1.0736-0.671 1.8369-1.741 2.122-2.9746l4.587-20.04c0.2822-1.2364 0.062-2.5342-0.612-3.6083-0.674-1.0742-1.7468-1.8369-2.9828-2.1207l-33.105-7.5865c-1.2359-0.2822-2.5332-0.0626-3.6073 0.6108s-1.8371 1.7454-2.1216 2.9808z" fill="#4382FF"/>
<path d="m79.875 39.152-4.587 20.027c-0.2851 1.2336-1.0483 2.3036-2.122 2.9746-1.0737 0.6711-2.3699 0.8883-3.6037 0.604l-2.1796-0.4978-0.9597 5.8721-5.7224-7.4011-8.8065-2.017c2.1711-3.7574 3.9045-7.7513 5.1661-11.904 1.6966-5.5881 2.5304-11.402 2.4724-17.242l16.748 3.8323c0.6144 0.1404 1.195 0.4007 1.7086 0.766 0.5135 0.3654 0.9498 0.8286 1.2838 1.363s0.5592 1.1296 0.6625 1.7513c0.1034 0.6217 0.083 1.2576-0.0601 1.8714z" fill="url(#a)" style="mix-blend-mode:soft-light"/>
<rect transform="rotate(57.896 49.901 33.589)" x="49.901" y="33.589" width="8.6342" height="2.2071" rx="1.1035" fill="#fff"/>
<rect transform="rotate(162.9 54.186 41.479)" x="54.186" y="41.479" width="8.6342" height="2.1952" rx="1.0976" fill="#fff"/>
<rect transform="matrix(-.84708 .53146 .53146 .84708 65.886 37.248)" width="8.6342" height="2.293" rx="1.1465" fill="#fff"/>
<rect transform="matrix(.73259 .68067 .68067 -.73259 58.594 42.489)" width="8.6342" height="2.2145" rx="1.1072" fill="#fff"/>
<path d="m60.371 48.26c0.5384 0.1233 0.8822 0.6641 0.6777 1.1772-1.1538 2.894-4.2749 4.5964-7.4067 3.8794-3.1318-0.7171-5.2013-3.6079-4.981-6.7156 0.0391-0.5509 0.584-0.8883 1.1224-0.7651l10.588 2.4241z" fill="#fff"/>
<defs>
<linearGradient id="b" x1="45.045" x2="40.381" y1="32.086" y2="2.334" gradientUnits="userSpaceOnUse">
<stop offset="0"/>
<stop stop-color="#fff" stop-opacity="0" offset="1"/>
</linearGradient>
<linearGradient id="a" x1="61.736" x2="69.779" y1="67.08" y2="31.933" gradientUnits="userSpaceOnUse">
<stop stop-opacity=".8" offset="0"/>
<stop stop-color="#fff" stop-opacity="0" offset="1"/>
</linearGradient>
</defs>
</svg>
